<svg width="60" height="58" viewBox="0 0 60 58" fill="none" xmlns="http://www.w3.org/2000/svg">
<path d="M25 5.66666C37.8868 5.66666 48.3333 16.1132 48.3333 29C48.3333 39.36 41.5783 48.1382 32.2343 51.1842C32.2372 51.1754 32.2411 51.1628 32.2411 51.1628C32.2411 51.1628 30.6661 50.4249 30.6992 49.1075C30.7361 47.6579 30.6992 44.2746 30.6992 43.0331C30.6992 40.901 29.3497 39.3901 29.3497 39.3901C29.3497 39.3901 39.9314 39.5087 39.9314 28.2183C39.9314 23.8618 37.6544 21.5956 37.6544 21.5956C37.6544 21.5956 38.8503 16.9444 37.2403 14.9728C35.4358 14.7783 32.2042 16.6975 30.8236 17.5949C30.8236 17.5949 28.6361 16.6985 24.999 16.6985C21.361 16.6985 19.1744 17.5949 19.1744 17.5949C17.7949 16.6985 14.5622 14.7783 12.7578 14.9728C11.1478 16.9454 12.3436 21.5956 12.3436 21.5956C12.3436 21.5956 10.0667 23.8628 10.0667 28.2183C10.0667 39.5087 20.6483 39.3901 20.6483 39.3901C20.6483 39.3901 19.5818 40.5947 19.3494 42.3661C18.6105 42.6169 17.5246 42.9261 16.6467 42.9261C14.3503 42.9261 12.6032 40.6939 11.9635 39.6614C11.3325 38.6425 10.0385 37.7879 8.83194 37.7879C8.03763 37.7879 7.64971 38.1856 7.64971 38.6396C7.64971 39.0936 8.76388 39.4106 9.49888 40.2525C11.0486 42.0278 11.0204 46.0207 16.5426 46.0207C17.1425 46.0207 18.3665 45.8729 19.2872 45.7494C19.2814 47.0065 19.2804 48.3326 19.2999 49.1075C19.3329 50.4249 17.7579 51.1628 17.7579 51.1628C17.7579 51.1628 17.7618 51.1754 17.7647 51.1842C8.42166 48.1382 1.66666 39.36 1.66666 29C1.66666 16.1132 12.1132 5.66666 25 5.66666Z" fill="white"/>
</svg>
